<svg width="73" height="78" xmlns="http://www.w3.org/2000/svg" xmlns:xlink="http://www.w3.org/1999/xlink" xml:space="preserve" overflow="hidden"><defs><clipPath id="clip0"><rect x="1361" y="3235" width="73" height="78"/></clipPath><clipPath id="clip1"><rect x="1361" y="3235" width="73" height="78"/></clipPath></defs><g clip-path="url(#clip0)" transform="translate(-1361 -3235)"><g clip-path="url(#clip1)"><path d="M1398 3240C1417.88 3240 1434 3256.12 1434 3276 1434 3282.32 1432.34 3288.53 1429.18 3294 1422.75 3305.14 1410.86 3312 1398 3312 1385.14 3312 1373.25 3305.14 1366.82 3294 1363.66 3288.53 1362 3282.32 1362 3276 1362 3256.12 1378.12 3240 1398 3240Z" fill="#007AC2" fill-rule="evenodd" fill-opacity="1"/><path d="M1403.06 3241 1408.13 3242.45 1413.19 3243.89 1417.53 3246.79 1421.15 3249.68 1424.77 3253.3 1427.66 3257.64 1429.83 3262.7 1431.28 3267.04 1432 3272.11 1432 3277.89 1431.28 3282.96 1429.83 3287.3 1427.66 3292.36 1424.77 3296.7 1421.15 3300.32 1417.53 3303.21 1413.19 3306.11 1408.13 3307.55 1403.06 3309 1392.94 3309 1387.87 3307.55 1382.81 3306.11 1378.47 3303.21 1374.85 3300.32 1371.23 3296.7 1368.34 3292.36 1366.17 3287.3 1364.72 3282.96 1364 3277.89 1364 3272.11 1364.72 3267.04 1366.17 3262.7 1368.34 3257.64 1371.23 3253.3 1374.85 3249.68 1378.47 3246.79 1382.81 3243.89 1387.87 3242.45 1392.94 3241 1403.06 3241Z" stroke="#000000" stroke-width="3.60928" stroke-linecap="square" stroke-linejoin="miter" stroke-miterlimit="1.27" stroke-opacity="0.25098" fill="none" fill-rule="evenodd"/><path d="M1388.81 3287C1391.34 3289.77 1394.36 3291.83 1397.62 3291.83 1397.76 3291.83 1398.24 3291.83 1398.38 3291.83 1401.64 3291.83 1404.66 3289.77 1407.19 3287 1409.47 3289.77 1412.32 3292.17 1415.89 3292.17 1418.66 3292.17 1421.37 3290 1424 3287.7L1424 3292.7C1421.33 3294.9 1417.9 3297 1415.82 3297 1412.04 3297 1409.2 3295.03 1407.19 3292.7 1405.38 3295.1 1402.16 3297 1398.28 3297L1397.72 3297C1393.84 3297 1390.62 3295.1 1388.81 3292.7 1386.8 3295.03 1383.96 3297 1380.18 3297 1378 3297 1374.67 3294.9 1372 3292.7L1372 3287.7C1374.63 3290 1377.34 3292.17 1380.11 3292.17 1383.68 3292.17 1386.53 3289.77 1388.81 3287Z" fill="#FFFFFF" fill-rule="evenodd" fill-opacity="1"/><path d="M1388.81 3270C1391.34 3272.77 1394.36 3274.83 1397.62 3274.83 1397.76 3274.83 1398.24 3274.83 1398.38 3274.83 1401.64 3274.83 1404.66 3272.77 1407.19 3270 1409.47 3272.77 1412.32 3275.17 1415.89 3275.17 1418.66 3275.17 1421.37 3273 1424 3270.7L1424 3275.7C1421.33 3277.9 1417.9 3280 1415.82 3280 1412.04 3280 1409.2 3278.03 1407.19 3275.7 1405.38 3278.1 1402.16 3280 1398.28 3280L1397.72 3280C1393.84 3280 1390.62 3278.1 1388.81 3275.7 1386.8 3278.03 1383.96 3280 1380.18 3280 1378 3280 1374.67 3277.9 1372 3275.7L1372 3270.7C1374.63 3273 1377.34 3275.17 1380.11 3275.17 1383.68 3275.17 1386.53 3272.77 1388.81 3270Z" fill="#FFFFFF" fill-rule="evenodd" fill-opacity="1"/><path d="M1388.81 3253C1391.34 3256.04 1394.36 3258.32 1397.62 3258.32 1397.76 3258.32 1398.24 3258.32 1398.38 3258.32 1401.64 3258.32 1404.66 3256.04 1407.19 3253 1409.47 3256.04 1412.32 3258.68 1415.89 3258.68 1418.66 3258.68 1421.37 3256.3 1424 3253.77L1424 3259.27C1421.33 3261.69 1417.9 3264 1415.82 3264 1412.04 3264 1409.2 3261.84 1407.19 3259.27 1405.38 3261.91 1402.16 3264 1398.28 3264L1397.72 3264C1393.84 3264 1390.62 3261.91 1388.81 3259.27 1386.8 3261.84 1383.96 3264 1380.18 3264 1378 3264 1374.67 3261.69 1372 3259.27L1372 3253.77C1374.63 3256.3 1377.34 3258.68 1380.11 3258.68 1383.68 3258.68 1386.53 3256.04 1388.81 3253Z" fill="#FFFFFF" fill-rule="evenodd" fill-opacity="1"/></g></g></svg>