<svg width="78" height="77" xmlns="http://www.w3.org/2000/svg" xmlns:xlink="http://www.w3.org/1999/xlink" xml:space="preserve" overflow="hidden"><g transform="translate(-499 -2585)"><g><path d="M537 2589C556.882 2589 573 2605.12 573 2625 573 2631.32 571.337 2637.53 568.177 2643 561.746 2654.14 549.862 2661 537 2661 524.138 2661 512.254 2654.14 505.823 2643 502.663 2637.53 501 2631.32 501 2625 501 2605.12 517.118 2589 537 2589Z" fill="#007AC2" fill-rule="evenodd" fill-opacity="1"/><path d="M541.064 2591 546.128 2592.43 551.192 2593.85 555.532 2596.7 559.149 2599.55 562.766 2603.12 565.66 2607.39 567.83 2612.38 569.277 2616.66 570 2621.65 570 2627.35 569.277 2632.34 567.83 2636.62 565.66 2641.61 562.766 2645.88 559.149 2649.45 555.532 2652.3 551.192 2655.15 546.128 2656.57 541.064 2658 530.936 2658 525.872 2656.57 520.808 2655.15 516.468 2652.3 512.851 2649.45 509.234 2645.88 506.34 2641.61 504.17 2636.62 502.723 2632.34 502 2627.35 502 2621.65 502.723 2616.66 504.17 2612.38 506.34 2607.39 509.234 2603.12 512.851 2599.55 516.468 2596.7 520.808 2593.85 525.872 2592.43 530.936 2591 541.064 2591Z" stroke="#000000" stroke-width="3.60928" stroke-linecap="square" stroke-linejoin="miter" stroke-miterlimit="1.27" stroke-opacity="0.25098" fill="none" fill-rule="evenodd"/><path d="M519.778 2599 534 2599 534 2605.8 521.556 2605.8 521.556 2619.4 534 2619.4 534 2650 518 2650 518 2600.7 518.036 2600.39 519.778 2599Z" fill="#FFFFFF" fill-rule="evenodd" fill-opacity="1"/><path d="M534 2599 547.819 2599 549.546 2600.7 549.546 2605.8 551.273 2605.8 551.722 2605.83 553 2606.45 553 2616 549.546 2616 549.546 2633C549.545 2633.01 549.545 2633.02 549.545 2633.03 549.545 2634.89 551.077 2636.4 552.967 2636.4L553 2636.4 553 2639.8 549.546 2638.85 549.546 2650 534 2650 534 2619.4 546.091 2619.4 546.091 2605.8 534 2605.8 534 2599Z" fill="#FFFFFF" fill-rule="evenodd" fill-opacity="1"/><path d="M553 2605 555.117 2606.02C555.976 2606.94 556.497 2608.18 556.497 2609.52 556.497 2609.53 556.497 2609.53 556.497 2609.54L556.497 2614.84C556.497 2614.87 556.497 2614.89 556.497 2614.91 556.497 2616.55 556.697 2618.18 557.092 2619.76L559.784 2630.37C559.928 2630.93 560 2631.5 560 2632.08 560 2635.9 556.873 2639 553.015 2639 553.01 2639 553.005 2639 553 2639L553 2635.53C553.001 2635.53 553.002 2635.53 553.002 2635.53 554.932 2635.53 556.497 2633.98 556.497 2632.07 556.497 2632.07 556.497 2632.07 556.497 2632.07L556.497 2631.03 553.735 2620.98C553.249 2619.13 553.003 2617.23 553 2615.33L553 2614.74 553 2605Z" fill="#FFFFFF" fill-rule="evenodd" fill-opacity="1"/></g></g></svg>