<svg width="74" height="78" xmlns="http://www.w3.org/2000/svg" xmlns:xlink="http://www.w3.org/1999/xlink" xml:space="preserve" overflow="hidden"><g transform="translate(-1365 -724)"><g><path d="M1402 727C1421.88 727 1438 743.118 1438 763 1438 769.319 1436.34 775.527 1433.18 781 1426.75 792.138 1414.86 799 1402 799 1389.14 799 1377.25 792.138 1370.82 781 1367.66 775.527 1366 769.319 1366 763 1366 743.118 1382.12 727 1402 727Z" fill="#007AC2" fill-rule="evenodd" fill-opacity="1"/><path d="M1408.06 729 1413.13 730.426 1418.19 731.851 1422.53 734.702 1426.15 737.553 1429.77 741.117 1432.66 745.394 1434.83 750.383 1436.28 754.66 1437 759.649 1437 765.351 1436.28 770.341 1434.83 774.617 1432.66 779.607 1429.77 783.883 1426.15 787.447 1422.53 790.298 1418.19 793.149 1413.13 794.575 1408.06 796 1397.94 796 1392.87 794.575 1387.81 793.149 1383.47 790.298 1379.85 787.447 1376.23 783.883 1373.34 779.607 1371.17 774.617 1369.72 770.341 1369 765.351 1369 759.649 1369.72 754.66 1371.17 750.383 1373.34 745.394 1376.23 741.117 1379.85 737.553 1383.47 734.702 1387.81 731.851 1392.87 730.426 1397.94 729 1408.06 729Z" stroke="#000000" stroke-width="3.60928" stroke-linecap="square" stroke-linejoin="miter" stroke-miterlimit="1.27" stroke-opacity="0.25098" fill="none" fill-rule="evenodd"/><path d="M1403 757 1403 761 1400 761 1403 757Z" fill="#FFFFFF" fill-rule="evenodd" fill-opacity="1"/><path d="M1383.32 744 1403 744 1403 750.909 1398.53 750.909 1393.9 764.727 1401.51 764.727 1397.54 780.273 1403 773.148 1403 782 1383.65 782 1383.32 781.654 1382.65 781.654 1382.65 781.309 1382.32 781.309 1381.99 780.964 1381.66 780.618 1381.66 780.273 1381.33 780.273 1381.33 779.582 1381 779.582 1381 746.418 1381.33 746.073 1381.33 745.727 1381.66 745.382 1381.99 745.036 1382.32 744.691 1382.65 744.346 1383.32 744.346 1383.32 744Z" fill="#FFFFFF" fill-rule="evenodd" fill-opacity="1"/><path d="M1403 744 1422.57 744 1422.57 744.346 1423.27 744.346 1423.61 744.691 1423.96 745.036 1424.31 745.382 1424.65 745.727 1424.65 746.073 1425 746.418 1425 747.454 1425 779.582 1424.65 779.582 1424.65 780.273 1424.31 780.273 1424.31 780.618 1423.96 780.964 1423.61 781.309 1423.27 781.309 1423.27 781.654 1422.57 781.654 1422.57 782 1403 782 1403 773.148 1412.53 761.273 1403 761.273 1403 757.486 1408.72 750.909 1403 750.909 1403 744Z" fill="#FFFFFF" fill-rule="evenodd" fill-opacity="1"/></g></g></svg>