<svg width="78" height="78" xmlns="http://www.w3.org/2000/svg" xmlns:xlink="http://www.w3.org/1999/xlink" xml:space="preserve" overflow="hidden"><g transform="translate(-2232 -2621)"><g><path d="M2269.5 2626C2289.66 2626 2306 2642.12 2306 2662 2306 2668.32 2304.31 2674.53 2301.11 2680 2294.59 2691.14 2282.54 2698 2269.5 2698 2256.46 2698 2244.41 2691.14 2237.89 2680 2234.69 2674.53 2233 2668.32 2233 2662 2233 2642.12 2249.34 2626 2269.5 2626Z" fill="#007AC2" fill-rule="evenodd" fill-opacity="1"/><path d="M2274.06 2627 2279.13 2628.45 2284.19 2629.89 2288.53 2632.79 2292.15 2635.68 2295.77 2639.3 2298.66 2643.64 2300.83 2648.7 2302.28 2653.04 2303 2658.11 2303 2663.89 2302.28 2668.96 2300.83 2673.3 2298.66 2678.36 2295.77 2682.7 2292.15 2686.32 2288.53 2689.21 2284.19 2692.11 2279.13 2693.55 2274.06 2695 2263.94 2695 2258.87 2693.55 2253.81 2692.11 2249.47 2689.21 2245.85 2686.32 2242.23 2682.7 2239.34 2678.36 2237.17 2673.3 2235.72 2668.96 2235 2663.89 2235 2658.11 2235.72 2653.04 2237.17 2648.7 2239.34 2643.64 2242.23 2639.3 2245.85 2635.68 2249.47 2632.79 2253.81 2629.89 2258.87 2628.45 2263.94 2627 2274.06 2627Z" stroke="#000000" stroke-width="3.60928" stroke-linecap="square" stroke-linejoin="miter" stroke-miterlimit="1.27" stroke-opacity="0.25098" fill="none" fill-rule="evenodd"/><path d="M2267.66 2634C2272.85 2634.41 2278 2636.55 2283.09 2640.35 2284.46 2641.37 2287.14 2644.02 2291.16 2648.29L2294.94 2652.33C2295.73 2653.25 2296.42 2654 2297 2654.64L2292.64 2659.12 2284.05 2651.31 2272.37 2664.22 2284.74 2678.48 2289.2 2674.06 2291.61 2676.44 2279.24 2689 2276.84 2686.28 2280.96 2682.21 2268.94 2668.29 2254.51 2684.59 2250.39 2681.19 2265.16 2664.22 2260.69 2658.44 2254.54 2664.32C2254.54 2664.32 2243 2651.21 2246.4 2641.67 2256.09 2638.31 2269.35 2650.02 2269.35 2650.02L2264.47 2654.71 2268.94 2660.14 2280.61 2646.97C2278.66 2642.45 2276.73 2639.64 2274.88 2638.45 2273.68 2637.6 2272.44 2636.82 2271.24 2636.1 2270.03 2635.36 2268.83 2634.68 2267.66 2634Z" fill="#FFFFFF" fill-rule="evenodd" fill-opacity="1"/></g></g></svg>