<svg width="78" height="78" xmlns="http://www.w3.org/2000/svg" xmlns:xlink="http://www.w3.org/1999/xlink" xml:space="preserve" overflow="hidden"><g transform="translate(-2232 -3116)"><g><path d="M2269.5 3120C2289.66 3120 2306 3136.12 2306 3156 2306 3162.32 2304.31 3168.53 2301.11 3174 2294.59 3185.14 2282.54 3192 2269.5 3192 2256.46 3192 2244.41 3185.14 2237.89 3174 2234.69 3168.53 2233 3162.32 2233 3156 2233 3136.12 2249.34 3120 2269.5 3120Z" fill="#007AC2" fill-rule="evenodd" fill-opacity="1"/><path d="M2274.06 3121 2279.13 3122.45 2284.19 3123.89 2288.53 3126.79 2292.15 3129.68 2295.77 3133.3 2298.66 3137.64 2300.83 3142.7 2302.28 3147.04 2303 3152.11 2303 3157.89 2302.28 3162.96 2300.83 3167.3 2298.66 3172.36 2295.77 3176.7 2292.15 3180.32 2288.53 3183.21 2284.19 3186.11 2279.13 3187.55 2274.06 3189 2263.94 3189 2258.87 3187.55 2253.81 3186.11 2249.47 3183.21 2245.85 3180.32 2242.23 3176.7 2239.34 3172.36 2237.17 3167.3 2235.72 3162.96 2235 3157.89 2235 3152.11 2235.72 3147.04 2237.17 3142.7 2239.34 3137.64 2242.23 3133.3 2245.85 3129.68 2249.47 3126.79 2253.81 3123.89 2258.87 3122.45 2263.94 3121 2274.06 3121Z" stroke="#000000" stroke-width="3.60928" stroke-linecap="square" stroke-linejoin="miter" stroke-miterlimit="1.27" stroke-opacity="0.25098" fill="none" fill-rule="evenodd"/><path d="M2255 3164 2255.69 3164.37 2256.03 3165.1 2256.71 3165.83 2257.4 3166.2 2257.74 3166.93 2258.09 3167.3 2258.43 3167.67 2258.77 3168.03 2259.11 3168.03 2259.46 3168.4 2259.8 3168.77 2260.14 3169.13 2260.49 3169.5 2260.83 3169.5 2261.17 3169.87 2261.51 3170.23 2261.86 3170.23 2262.2 3170.6 2262.89 3170.6 2263.23 3170.97 2264.94 3170.97 2267 3170.97 2267 3175 2263.57 3175 2263.23 3174.63 2261.86 3174.63 2261.51 3174.27 2260.83 3174.27 2260.49 3173.9 2259.8 3173.9 2259.46 3173.53 2259.11 3173.53 2258.77 3173.17 2258.43 3172.8 2258.09 3172.43 2257.74 3172.43 2257.4 3172.07 2257.06 3172.07 2257.06 3171.7 2256.71 3171.33 2256.37 3171.33 2256.03 3170.97 2256.03 3170.6 2255.69 3170.23 2255.34 3170.23 2255.34 3169.87 2255 3169.5 2254.66 3169.87 2254.66 3170.23 2254.31 3170.23 2253.97 3170.6 2253.97 3170.97 2253.63 3171.33 2253.29 3171.33 2252.94 3171.7 2252.94 3172.07 2252.6 3172.07 2252.26 3172.43 2251.91 3172.43 2251.57 3172.8 2251.57 3173.17 2251.23 3173.17 2250.89 3173.53 2250.54 3173.53 2250.2 3173.9 2249.51 3173.9 2249.17 3174.27 2248.49 3174.27 2248.14 3174.63 2246.77 3174.63 2246.43 3175 2243 3175 2243 3170.97 2246.77 3170.97 2247.11 3170.6 2247.8 3170.6 2248.14 3170.23 2248.49 3170.23 2248.83 3169.87 2249.17 3169.5 2249.51 3169.5 2249.86 3169.13 2250.2 3168.77 2250.54 3168.77 2250.54 3168.4 2250.89 3168.03 2251.23 3168.03 2251.57 3167.67 2251.91 3167.3 2252.26 3166.93 2252.94 3166.2 2253.29 3165.83 2253.97 3165.1 2254.31 3164.37 2255 3164Z" fill="#FFFFFF" fill-rule="evenodd" fill-opacity="1"/><path d="M2255 3150 2255.69 3150.33 2256.03 3151 2256.71 3151.67 2257.4 3152 2257.74 3152.67 2258.09 3153 2258.43 3153.33 2258.77 3153.67 2259.11 3153.67 2259.46 3154 2259.8 3154.33 2260.14 3154.67 2260.49 3155 2260.83 3155 2261.17 3155.33 2261.51 3155.67 2261.86 3155.67 2262.2 3156 2262.89 3156 2263.23 3156.33 2264.94 3156.33 2267 3156.33 2267 3160 2263.57 3160 2263.23 3159.67 2261.86 3159.67 2261.51 3159.33 2260.83 3159.33 2260.49 3159 2259.8 3159 2259.46 3158.67 2259.11 3158.67 2258.77 3158.33 2258.43 3158 2258.09 3157.67 2257.74 3157.67 2257.4 3157.33 2257.06 3157.33 2257.06 3157 2256.71 3156.67 2256.37 3156.67 2256.03 3156.33 2256.03 3156 2255.69 3155.67 2255.34 3155.67 2255.34 3155.33 2255 3155 2254.66 3155.33 2254.66 3155.67 2254.31 3155.67 2253.97 3156 2253.97 3156.33 2253.63 3156.67 2253.29 3156.67 2252.94 3157 2252.94 3157.33 2252.6 3157.33 2252.26 3157.67 2251.91 3157.67 2251.57 3158 2251.57 3158.33 2251.23 3158.33 2250.89 3158.67 2250.54 3158.67 2250.2 3159 2249.51 3159 2249.17 3159.33 2248.49 3159.33 2248.14 3159.67 2246.77 3159.67 2246.43 3160 2243 3160 2243 3156.33 2246.77 3156.33 2247.11 3156 2247.8 3156 2248.14 3155.67 2248.49 3155.67 2248.83 3155.33 2249.17 3155 2249.51 3155 2249.86 3154.67 2250.2 3154.33 2250.54 3154.33 2250.54 3154 2250.89 3153.67 2251.23 3153.67 2251.57 3153.33 2251.91 3153 2252.26 3152.67 2252.94 3152 2253.29 3151.67 2253.97 3151 2254.31 3150.33 2255 3150Z" fill="#FFFFFF" fill-rule="evenodd" fill-opacity="1"/><path d="M2255 3137 2255.69 3137.37 2256.03 3138.1 2256.71 3138.83 2257.4 3139.2 2257.74 3139.93 2258.09 3140.3 2258.43 3140.67 2258.77 3141.03 2259.11 3141.03 2259.46 3141.4 2259.8 3141.77 2260.14 3142.13 2260.49 3142.5 2260.83 3142.5 2261.17 3142.87 2261.51 3143.23 2261.86 3143.23 2262.2 3143.6 2262.89 3143.6 2263.23 3143.97 2264.94 3143.97 2267 3143.97 2267 3148 2263.57 3148 2263.23 3147.63 2261.86 3147.63 2261.51 3147.27 2260.83 3147.27 2260.49 3146.9 2259.8 3146.9 2259.46 3146.53 2259.11 3146.53 2258.77 3146.17 2258.43 3145.8 2258.09 3145.43 2257.74 3145.43 2257.4 3145.07 2257.06 3145.07 2257.06 3144.7 2256.71 3144.33 2256.37 3144.33 2256.03 3143.97 2256.03 3143.6 2255.69 3143.23 2255.34 3143.23 2255.34 3142.87 2255 3142.5 2254.66 3142.87 2254.66 3143.23 2254.31 3143.23 2253.97 3143.6 2253.97 3143.97 2253.63 3144.33 2253.29 3144.33 2252.94 3144.7 2252.94 3145.07 2252.6 3145.07 2252.26 3145.43 2251.91 3145.43 2251.57 3145.8 2251.57 3146.17 2251.23 3146.17 2250.89 3146.53 2250.54 3146.53 2250.2 3146.9 2249.51 3146.9 2249.17 3147.27 2248.49 3147.27 2248.14 3147.63 2246.77 3147.63 2246.43 3148 2243 3148 2243 3143.97 2246.77 3143.97 2247.11 3143.6 2247.8 3143.6 2248.14 3143.23 2248.49 3143.23 2248.83 3142.87 2249.17 3142.5 2249.51 3142.5 2249.86 3142.13 2250.2 3141.77 2250.54 3141.77 2250.54 3141.4 2250.89 3141.03 2251.23 3141.03 2251.57 3140.67 2251.91 3140.3 2252.26 3139.93 2252.94 3139.2 2253.29 3138.83 2253.97 3138.1 2254.31 3137.37 2255 3137Z" fill="#FFFFFF" fill-rule="evenodd" fill-opacity="1"/><path d="M2270 3129 2280.5 3129 2291 3178 2270 3178 2270 3129Z" fill="#FFFFFF" fill-rule="evenodd" fill-opacity="1"/></g></g></svg>